<svg width="60" height="57" viewBox="0 0 60 57" fill="none" xmlns="http://www.w3.org/2000/svg">
<path d="M12.0001 45.58C11.7151 45.8186 11.4215 46.043 11.1141 46.2447C10.203 46.8323 9.13813 47.1364 8.05414 47.1187C7.08972 47.1206 6.13733 46.9045 5.26815 46.4867C2.72016 45.2687 2.06016 42.1467 2.01216 39.3247C1.9993 38.567 1.99671 33.8323 2.00407 33.1199C2.13291 20.654 5.30979 15.0393 9.81813 13.4388C10.5153 13.1918 11.261 13.1289 12.0001 13.12H47.9999C48.739 13.1289 49.4847 13.1918 50.1819 13.4388C54.6902 15.0393 57.8671 20.654 57.9959 33.1199C58.0033 33.8323 58.0007 38.567 57.9878 39.3247C57.9398 42.1467 57.2798 45.2687 54.7318 46.4867C53.8627 46.9045 52.9103 47.1206 51.9459 47.1187C50.8619 47.1364 49.797 46.8323 48.8859 46.2447C48.5785 46.043 48.2849 45.8186 47.9999 45.58" stroke="white" stroke-width="2" stroke-linecap="round"/>
<path d="M14.5 22.62C14.5 22.0677 14.9477 21.62 15.5 21.62H16.5C17.0523 21.62 17.5 22.0677 17.5 22.62V23.62C17.5 24.1723 17.0523 24.62 16.5 24.62H15.5C14.9477 24.62 14.5 24.1723 14.5 23.62V22.62Z" fill="white"/>
<path d="M21.5 22.62C21.5 22.0677 21.9477 21.62 22.5 21.62H23.5C24.0523 21.62 24.5 22.0677 24.5 22.62V23.62C24.5 24.1723 24.0523 24.62 23.5 24.62H22.5C21.9477 24.62 21.5 24.1723 21.5 23.62V22.62Z" fill="white"/>
<path d="M28.5 22.62C28.5 22.0677 28.9477 21.62 29.5 21.62H30.5C31.0523 21.62 31.5 22.0677 31.5 22.62V23.62C31.5 24.1723 31.0523 24.62 30.5 24.62H29.5C28.9477 24.62 28.5 24.1723 28.5 23.62V22.62Z" fill="white"/>
<path d="M35.5 22.62C35.5 22.0677 35.9477 21.62 36.5 21.62H37.5C38.0523 21.62 38.5 22.0677 38.5 22.62V23.62C38.5 24.1723 38.0523 24.62 37.5 24.62H36.5C35.9477 24.62 35.5 24.1723 35.5 23.62V22.62Z" fill="white"/>
<path d="M42.5 22.62C42.5 22.0677 42.9477 21.62 43.5 21.62H44.5C45.0523 21.62 45.5 22.0677 45.5 22.62V23.62C45.5 24.1723 45.0523 24.62 44.5 24.62H43.5C42.9477 24.62 42.5 24.1723 42.5 23.62V22.62Z" fill="white"/>
<path d="M14.5 29.62C14.5 29.0677 14.9477 28.62 15.5 28.62H16.5C17.0523 28.62 17.5 29.0677 17.5 29.62V30.62C17.5 31.1723 17.0523 31.62 16.5 31.62H15.5C14.9477 31.62 14.5 31.1723 14.5 30.62V29.62Z" fill="white"/>
<path d="M21.5 29.62C21.5 29.0677 21.9477 28.62 22.5 28.62H23.5C24.0523 28.62 24.5 29.0677 24.5 29.62V30.62C24.5 31.1723 24.0523 31.62 23.5 31.62H22.5C21.9477 31.62 21.5 31.1723 21.5 30.62V29.62Z" fill="white"/>
<path d="M28.5 29.62C28.5 29.0677 28.9477 28.62 29.5 28.62H30.5C31.0523 28.62 31.5 29.0677 31.5 29.62V30.62C31.5 31.1723 31.0523 31.62 30.5 31.62H29.5C28.9477 31.62 28.5 31.1723 28.5 30.62V29.62Z" fill="white"/>
<path d="M35.5 29.62C35.5 29.0677 35.9477 28.62 36.5 28.62H44.4999C45.0522 28.62 45.4999 29.0677 45.4999 29.62V30.62C45.4999 31.1723 45.0522 31.62 44.4999 31.62H36.5C35.9477 31.62 35.5 31.1723 35.5 30.62V29.62Z" fill="#17E2B2"/>
<path d="M14.5 36.62C14.5 36.0677 14.9477 35.62 15.5 35.62H16.5C17.0523 35.62 17.5 36.0677 17.5 36.62V37.62C17.5 38.1723 17.0523 38.62 16.5 38.62H15.5C14.9477 38.62 14.5 38.1723 14.5 37.62V36.62Z" fill="white"/>
<path d="M21.5 36.62C21.5 36.0677 21.9477 35.62 22.5 35.62H37.5C38.0523 35.62 38.5 36.0677 38.5 36.62V37.62C38.5 38.1723 38.0523 38.62 37.5 38.62H22.5C21.9477 38.62 21.5 38.1723 21.5 37.62V36.62Z" fill="#8D99FF"/>
<path d="M42.5 36.62C42.5 36.0677 42.9477 35.62 43.5 35.62H44.5C45.0523 35.62 45.5 36.0677 45.5 36.62V37.62C45.5 38.1723 45.0523 38.62 44.5 38.62H43.5C42.9477 38.62 42.5 38.1723 42.5 37.62V36.62Z" fill="white"/>
<path d="M26.873 48.2C26.585 47.6453 26.185 47.2293 25.673 46.952C25.161 46.664 24.569 46.52 23.897 46.52C23.161 46.52 22.505 46.6853 21.929 47.016C21.353 47.3467 20.8997 47.816 20.569 48.424C20.249 49.032 20.089 49.736 20.089 50.536C20.089 51.336 20.249 52.0453 20.569 52.664C20.8997 53.272 21.353 53.7413 21.929 54.072C22.505 54.4027 23.161 54.568 23.897 54.568C24.889 54.568 25.6943 54.2907 26.313 53.736C26.9317 53.1813 27.3103 52.4293 27.449 51.48H23.273V50.024H29.401V51.448C29.2837 52.312 28.9743 53.1067 28.473 53.832C27.9823 54.5573 27.337 55.1387 26.537 55.576C25.7477 56.0027 24.8677 56.216 23.897 56.216C22.8517 56.216 21.897 55.976 21.033 55.496C20.169 55.0053 19.481 54.328 18.969 53.464C18.4677 52.6 18.217 51.624 18.217 50.536C18.217 49.448 18.4677 48.472 18.969 47.608C19.481 46.744 20.169 46.072 21.033 45.592C21.9077 45.1013 22.8623 44.856 23.897 44.856C25.081 44.856 26.1317 45.1493 27.049 45.736C27.977 46.312 28.649 47.1333 29.065 48.2H26.873ZM39.248 48.2C38.96 47.6453 38.56 47.2293 38.048 46.952C37.536 46.664 36.944 46.52 36.272 46.52C35.536 46.52 34.88 46.6853 34.304 47.016C33.728 47.3467 33.2747 47.816 32.944 48.424C32.624 49.032 32.464 49.736 32.464 50.536C32.464 51.336 32.624 52.0453 32.944 52.664C33.2747 53.272 33.728 53.7413 34.304 54.072C34.88 54.4027 35.536 54.568 36.272 54.568C37.264 54.568 38.0693 54.2907 38.688 53.736C39.3067 53.1813 39.6853 52.4293 39.824 51.48H35.648V50.024H41.776V51.448C41.6587 52.312 41.3493 53.1067 40.848 53.832C40.3573 54.5573 39.712 55.1387 38.912 55.576C38.1227 56.0027 37.2427 56.216 36.272 56.216C35.2267 56.216 34.272 55.976 33.408 55.496C32.544 55.0053 31.856 54.328 31.344 53.464C30.8427 52.6 30.592 51.624 30.592 50.536C30.592 49.448 30.8427 48.472 31.344 47.608C31.856 46.744 32.544 46.072 33.408 45.592C34.2827 45.1013 35.2373 44.856 36.272 44.856C37.456 44.856 38.5067 45.1493 39.424 45.736C40.352 46.312 41.024 47.1333 41.44 48.2H39.248Z" fill="#17E2B2"/>
<path d="M7.83648 7.12L5.47648 4.02V7.12H3.76648V0.0999949H5.47648V3.17999L7.81648 0.0999949H9.82648L7.10648 3.54L9.92648 7.12H7.83648ZM12.4491 1.47V2.89H14.7391V4.21H12.4491V5.75H15.0391V7.12H10.7391V0.0999949H15.0391V1.47H12.4491ZM22.1693 0.0999949L19.7393 4.8V7.12H18.0293V4.8L15.5993 0.0999949H17.5393L18.8993 3.03999L20.2493 0.0999949H22.1693ZM27.1083 3.51999C27.5149 3.60666 27.8416 3.81 28.0883 4.12999C28.3349 4.44333 28.4583 4.80333 28.4583 5.20999C28.4583 5.79666 28.2516 6.26333 27.8383 6.61C27.4316 6.95 26.8616 7.12 26.1283 7.12H22.8583V0.0999949H26.0183C26.7316 0.0999949 27.2883 0.263328 27.6883 0.589995C28.0949 0.916661 28.2983 1.35999 28.2983 1.91999C28.2983 2.33333 28.1883 2.67666 27.9683 2.94999C27.7549 3.22333 27.4683 3.41333 27.1083 3.51999ZM24.5683 2.93999H25.6883C25.9683 2.93999 26.1816 2.87999 26.3283 2.75999C26.4816 2.63333 26.5583 2.44999 26.5583 2.20999C26.5583 1.96999 26.4816 1.78666 26.3283 1.66C26.1816 1.53333 25.9683 1.47 25.6883 1.47H24.5683V2.93999ZM25.8283 5.74C26.1149 5.74 26.3349 5.67666 26.4883 5.55C26.6483 5.41666 26.7283 5.22666 26.7283 4.97999C26.7283 4.73333 26.6449 4.53999 26.4783 4.39999C26.3183 4.25999 26.0949 4.18999 25.8083 4.18999H24.5683V5.74H25.8283ZM32.7701 7.19C32.1101 7.19 31.5034 7.03666 30.9501 6.73C30.4034 6.42333 29.9667 5.99666 29.6401 5.45C29.3201 4.89666 29.1601 4.27666 29.1601 3.58999C29.1601 2.90333 29.3201 2.28666 29.6401 1.73999C29.9667 1.19333 30.4034 0.766662 30.9501 0.459995C31.5034 0.153328 32.1101 -5.00679e-06 32.7701 -5.00679e-06C33.4301 -5.00679e-06 34.0334 0.153328 34.5801 0.459995C35.1334 0.766662 35.5667 1.19333 35.8801 1.73999C36.2001 2.28666 36.3601 2.90333 36.3601 3.58999C36.3601 4.27666 36.2001 4.89666 35.8801 5.45C35.5601 5.99666 35.1267 6.42333 34.5801 6.73C34.0334 7.03666 33.4301 7.19 32.7701 7.19ZM32.7701 5.63C33.3301 5.63 33.7767 5.44333 34.1101 5.06999C34.4501 4.69666 34.6201 4.20333 34.6201 3.58999C34.6201 2.97 34.4501 2.47666 34.1101 2.10999C33.7767 1.73666 33.3301 1.54999 32.7701 1.54999C32.2034 1.54999 31.7501 1.73333 31.4101 2.09999C31.0767 2.46666 30.9101 2.96333 30.9101 3.58999C30.9101 4.20999 31.0767 4.70666 31.4101 5.08C31.7501 5.44666 32.2034 5.63 32.7701 5.63ZM41.6814 5.88H39.0614L38.6414 7.12H36.8514L39.3914 0.0999949H41.3714L43.9114 7.12H42.1014L41.6814 5.88ZM41.2414 4.55999L40.3714 1.99L39.5114 4.55999H41.2414ZM48.2645 7.12L46.8045 4.46999H46.3945V7.12H44.6845V0.0999949H47.5545C48.1078 0.0999949 48.5778 0.196662 48.9645 0.389995C49.3578 0.583328 49.6511 0.849995 49.8445 1.18999C50.0378 1.52333 50.1345 1.89666 50.1345 2.30999C50.1345 2.77666 50.0011 3.19333 49.7345 3.56C49.4745 3.92666 49.0878 4.18666 48.5745 4.33999L50.1945 7.12H48.2645ZM46.3945 3.26H47.4545C47.7678 3.26 48.0011 3.18333 48.1545 3.03C48.3145 2.87666 48.3945 2.65999 48.3945 2.37999C48.3945 2.11333 48.3145 1.90333 48.1545 1.75C48.0011 1.59666 47.7678 1.52 47.4545 1.52H46.3945V3.26ZM53.8379 0.0999949C54.5779 0.0999949 55.2246 0.246661 55.7779 0.539995C56.3312 0.833328 56.7579 1.24666 57.0579 1.77999C57.3646 2.30666 57.5179 2.91666 57.5179 3.61C57.5179 4.29666 57.3646 4.90666 57.0579 5.43999C56.7579 5.97333 56.3279 6.38666 55.7679 6.68C55.2146 6.97333 54.5712 7.12 53.8379 7.12H51.2079V0.0999949H53.8379ZM53.7279 5.64C54.3746 5.64 54.8779 5.46333 55.2379 5.11C55.5979 4.75666 55.7779 4.25666 55.7779 3.61C55.7779 2.96333 55.5979 2.45999 55.2379 2.09999C54.8779 1.73999 54.3746 1.55999 53.7279 1.55999H52.9179V5.64H53.7279Z" fill="#8D99FF"/>
</svg>
